<svg xmlns="http://www.w3.org/2000/svg" width="520" height="780" viewBox="0 0 520 780">
  <defs>
    <linearGradient id="bg" x1="0" y1="0" x2="1" y2="1">
      <stop offset="0" stop-color="#170c0d"/>
      <stop offset=".54" stop-color="hsl(72 48% 25%)"/>
      <stop offset="1" stop-color="#0e0808"/>
    </linearGradient>
    <pattern id="film" width="32" height="42" patternUnits="userSpaceOnUse">
      <rect width="32" height="42" fill="transparent"/>
      <rect x="5" y="5" width="12" height="10" rx="2" fill="#fff1d2" opacity=".28"/>
      <rect x="5" y="27" width="12" height="10" rx="2" fill="#fff1d2" opacity=".28"/>
    </pattern>
  </defs>
  <rect width="520" height="780" fill="url(#bg)"/>
  <rect x="0" y="0" width="26" height="780" fill="url(#film)" opacity=".45"/>
  <rect x="494" y="0" width="26" height="780" fill="url(#film)" opacity=".45"/>
  <rect x="44" y="44" width="432" height="692" fill="none" stroke="#d48642" stroke-width="3" opacity=".72"/>
  <circle cx="384" cy="156" r="82" fill="#d48642" opacity=".2"/>
  <path d="M76 546 C166 486 230 590 318 536 C370 504 402 500 448 528 L448 682 L76 682 Z" fill="#d48642" opacity=".18"/>
  <text x="44" y="104" fill="#d48642" font-size="24" font-weight="900">纪录片</text>
  <text x="44" y="142" fill="#fff1d2" font-size="20" opacity=".82">2013 / 电影 / 8.6</text>
  <text x="44" y="292" fill="#fff1d2" font-size="42" font-weight="900">梦与狂想的王国</text>
  <text x="44" y="500" fill="#d48642" font-size="22" font-weight="800">The Kingdom of Dreams and Madness</text>
  <text x="44" y="704" fill="#fff1d2" font-size="20" opacity=".78">赤铜映画档案</text>
</svg>